# xmcd
#
# Track frame offsets:
#	150
#	16351
#	29383
#	46255
#	62900
#	81828
#	98902
#	114441
#	128352
#	144163
#	160678
#	177393
#	190714
#	207376
#	220488
#	235490
#	249110
#	266728
#	283934
#
# Disc length: 3978 seconds
# Revision: 0
# Processed by: cddbd v1.5.2PL0 Copyright (c) Steve Scherf et al.
# Submitted via: dBpowerAMP V12.0
#
DISCID=0c0f8813
DTITLE=Various Artist - Country Radio December 2009
DYEAR=2009
DGENRE=Country
TTITLE0=Brad Paisley - American Saturday Night
TTITLE1=Joe Nichols - Gimme That Girl
TTITLE2=Toby Keith Feat Dave Koz and Marcus Miller and Arthur Thompson - Cryin For Me Wayman's Song
TTITLE3=Blake Shelton Feat Trace Adkins - Hillbilly Bone
TTITLE4=Lee Ann Womack - There Is A God
TTITLE5=Gloriana - How Far Do You Wanna Go
TTITLE6=Clay Walker - All Wrapped Up In You
TTITLE7=Hank Williams Jr Feat The Grascals - All The Roads
TTITLE8=Jessie Farrell - Nobody Says No
TTITLE9=Mica Roberts - Days You Live For
TTITLE10=Jimmy Wayne Feat Daryl Hall and John Oates - Sara Smile
TTITLE11=Kal Hourd - Beautiful Sound
TTITLE12=Johnny Reid - Old Flame
TTITLE13=Randy Houser - Whistlin Dixie
TTITLE14=Sierra Noble - Try Anything
TTITLE15=Marlee Scott - Yesterday Today and Tomorrow
TTITLE16=Jack Ingram Feat Patty Griffin - Seeing Stars
TTITLE17=Love and Theft - Runaway
TTITLE18=Codie Prevost - Santa's Got A New Ride
EXTD=
EXTT0=
EXTT1=
EXTT2=
EXTT3=
EXTT4=
EXTT5=
EXTT6=
EXTT7=
EXTT8=
EXTT9=
EXTT10=
EXTT11=
EXTT12=
EXTT13=
EXTT14=
EXTT15=
EXTT16=
EXTT17=
EXTT18=
PLAYORDER=
